*******************************************************************************
                   Hell in the Aegean (1970) - RadioResearch
*******************************************************************************

-------------------------------------------------------------------------------
                              General Information
-------------------------------------------------------------------------------
Type.................: Movie



Video Format.........: AVI
Video Bitrate........: 1516
Resolution...........: 608 x 480
Color................: 8 bit
FPS..................: 29.970
Source...............: DVD 4x3
Original Format......: NTSC
Genre................: War
IMDb Rating..........: 5.6
Movie Information....: http://www.imdb.com/title/tt0066779/

-------------------------------------------------------------------------------
                               Post Information
-------------------------------------------------------------------------------
Posted by............: RadioResearch
Posted on............: 5/19/2013

-------------------------------------------------------------------------------
                                 Release Notes
-------------------------------------------------------------------------------
SEEDBOX SUPPORTED!!

imdb:
"In May 1941, after the fall of the mainland just before the Germans entered 
Athens, promising a bold freshman, Nikiforos Kallergis (Christos Politis) leaves 
with his classmates from the cadet school, and transport the gold Bank of Greece 
in the Middle East to first stop the homeland of Crete. Despite the obstacles it 
encounters on its way, we managed to reach the island, where the Germans have 
already begun their attacks. Either way, every secret, Greeks and British 
soldiers will try to transfer the gold to Greek destroyer South of Crete. The 
existence of a secret agent will not be perceived as information about the 
company would reach the enemy so that business and the lives of Greek fighters 
put at risk. "

Uh-huh....  Greece, apparently feeling left-out after Italy cashed in with the 
macaroni Combat films, released this objet d'art to begin the only Souvlaki 
Combat film series.  Using a lot of film footage (I still can't get over the 
spposed footage of Germans marching into conquered territories to the tune of 
"Ein Heller und Ein Batzen"), they did their best and the result is one of the 
rarest WWII films ever.  I present it to you herewith.

Enjoy!

RadioResearch

General
Complete name                            : G:Hell in the Aegean (1971) DVDRip - 
RadioResearchHell in the Aegean - {RadioResearch}.avi
Format                                   : AVI
Format/Info                              : Audio Video Interleave
File size                                : 890 MiB
Duration                                 : 1h 22mn
Overall bit rate                         : 1 516 Kbps
Movie name                               : DVDVOLUME.Title1.DVDRip
Writing application                      : Lavf53.32.100
Original source form/Name                : DVDVOLUME

Video
ID                                       : 0
Format                                   : MPEG-4 Visual
Format profile                           : Advanced Simple@L5
Format settings, BVOP                    : 2
Format settings, QPel                    : No
Format settings, GMC                     : No warppoints
Format settings, Matrix                  : Default (H.263)
Muxing mode                              : Packed bitstream
Codec ID                                 : XVID
Codec ID/Hint                            : XviD
Duration                                 : 1h 22mn
Bit rate                                 : 1 312 Kbps
Width                                    : 608 pixels
Height                                   : 480 pixels
Display aspect ratio                     : 5:4
Frame rate                               : 29.970 fps
Color space                              : YUV
Chroma subsampling                       : 4:2:0
Bit depth                                : 8 bits
Scan type                                : Progressive
Compression mode                         : Lossy
Bits/(Pixel*Frame)                       : 0.150
Stream size                              : 771 MiB (87%)
Writing library                          : XviD 64

Audio
ID                                       : 1
Format                                   : AC-3
Format/Info                              : Audio Coding 3
Mode extension                           : CM (complete main)
Format settings, Endianness              : Big
Codec ID                                 : 2000
Duration                                 : 1h 22mn
Bit rate mode                            : Constant
Bit rate                                 : 192 Kbps
Channel(s)                               : 2 channels
Channel positions                        : Front: L R
Sampling rate                            : 48.0 KHz
Bit depth                                : 16 bits
Compression mode                         : Lossy
Stream size                              : 113 MiB (13%)
Alignment                                : Aligned on interleaves
Interleave, duration                     : 32 ms (0.96 video frame)

AVI FILE MD5 HASH  9480fd628eb55717c313aa9be4d316f2


WAIT!...WAIT!...DON'T GO YET!!

I am looking for the following:  If you have them, post them!!
Last Mercenary  (1968)   Movie may also be known as: Die Grosse Treibjagd / 
Soeldner der Gewalt
Rangers Attack at Hour X (1970)   Movie may also be known as: The Rangers
Skyriders Attack (1971)  Movie may also be known as: The Dove must not Fly
Heroes without Glory (1971)  Movie may also be known as: The Gardens of the 
Devil
Invincible Six (1970)  Movie may also be known as: The Heroes / The Magnificent 
Six
No time to Die (1984)  Movie may also be known as: Die Jagd nach dem goldenen 
Tiger / Danger - Keine Zeit zum Sterben / Hijacked to Hell (1984) 
Hell Commandos (1969)  Movie may also be known as: 7 eroiche carogne / Comando 
al infierno
Hell Raiders  (1968)
Battle of the Commandos / Legion of the Damned / La legione dei dannati (1969)
The Wings of War (1969) / Ora X - pattuglia suicida
A Bullet for Rommel (1969) / Hell's Brigade - Final Assault / Hora cero: 
Operación Rommel / The fall of the Giants
The Last Day of the War (1970) / El último día de la guerra
When Heroes Die (1970) / Consigna: matar al comandante en jefe
La lunga ombra del lupo (1971)
And the Bombs Keep Falling (1974) / ...E i cannoni tuonano ancora 
War Devils (1969) / I diavoli della guerra
A PLace in Hell (1969) / Un posto all'inferno
36 Hours in Hell (1969) / 36 ore all'inferno
Othello The Black Commando (1982)



-------------------------------------------------------------------------------
Generated with Cool NFO Creator - http://fly.to/coolbeans
-------------------------------------------------------------------------------
